<svg width="24" height="24" viewBox="0 0 24 24" fill="none" xmlns="http://www.w3.org/2000/svg">
<path fill-rule="evenodd" clip-rule="evenodd" d="M4.15554 9.91178L4.68416 14.8934C4.80729 16.0548 5.78856 16.931 6.96639 16.931H18.8846C19.9592 16.931 20.903 16.1739 21.1286 15.1316L22.9657 6.62821C23.0629 6.17759 22.9512 5.71407 22.6591 5.35676C22.3669 4.99869 21.9332 4.7931 21.469 4.7931H5.1507L4.8203 1.67972C4.779 1.29283 4.45089 1 4.0593 1H1.76482C1.34264 1 1 1.33986 1 1.75862C1 2.17738 1.34264 2.51724 1.76482 2.51724H3.37095C3.42659 3.04285 3.81285 6.68255 4.15554 9.91178ZM21.469 6.31034L19.6326 14.8137C19.5569 15.1612 19.2426 15.4138 18.8839 15.4138H6.96639C6.57327 15.4138 6.24669 15.1217 6.20539 14.7348L5.31131 6.31034H21.469Z" fill="#242422"/>
<path fill-rule="evenodd" clip-rule="evenodd" d="M7.88342 23C6.6184 23 5.58894 21.9789 5.58894 20.7241C5.58894 19.4694 6.6184 18.4483 7.88342 18.4483C9.14843 18.4483 10.1779 19.4694 10.1779 20.7241C10.1779 21.9789 9.14843 23 7.88342 23ZM7.88342 21.4828C8.30483 21.4828 8.64824 21.1421 8.64824 20.7241C8.64824 20.3061 8.30483 19.9655 7.88342 19.9655C7.462 19.9655 7.11859 20.3061 7.11859 20.7241C7.11859 21.1421 7.462 21.4828 7.88342 21.4828Z" fill="#242422"/>
<path fill-rule="evenodd" clip-rule="evenodd" d="M17.0613 18.4483C18.3263 18.4483 19.3558 19.4694 19.3558 20.7241C19.3558 21.9789 18.3263 23 17.0613 23C15.7963 23 14.7668 21.9789 14.7668 20.7241C14.7668 19.4694 15.7963 18.4483 17.0613 18.4483ZM17.0613 19.9655C16.6399 19.9655 16.2965 20.3061 16.2965 20.7241C16.2965 21.1421 16.6399 21.4828 17.0613 21.4828C17.4827 21.4828 17.8261 21.1421 17.8261 20.7241C17.8261 20.3061 17.4827 19.9655 17.0613 19.9655Z" fill="#242422"/>
</svg>
